<?xml version="1.0" encoding="UTF-8"?>
<svg version="1.1" xmlns="http://www.w3.org/2000/svg" width="494" height="494">
<path d="M0 0 C163.02 0 326.04 0 494 0 C494 163.02 494 326.04 494 494 C330.98 494 167.96 494 0 494 C0 330.98 0 167.96 0 0 Z " fill="#00081B" transform="translate(0,0)"/>
<path d="M0 0 C36.3 0 72.6 0 110 0 C114.79601942 9.59203883 119.53071329 19.13888943 124 28.875 C125.1254951 31.31287746 126.25162916 33.75044721 127.37890625 36.1875 C127.66995743 36.81711639 127.96100861 37.44673279 128.26087952 38.09542847 C131.78287189 45.70594581 135.36113666 53.28992558 138.9375 60.875 C144.26726565 72.18247978 149.57426323 83.50013181 154.85321045 94.8314209 C159.56397649 104.94143145 164.30766143 115.03565088 169.0625 125.125 C175.01460754 137.75623341 180.91833822 150.40881387 186.7890625 163.078125 C190.17891886 170.39187048 193.58836791 177.69639603 197 185 C200.94239725 193.43986322 204.87625302 201.88351131 208.79272461 210.33544922 C214.47272778 222.59289782 220.20220307 234.82598027 225.96081543 247.04663086 C232.15219137 260.18621323 238.30585088 273.34300569 244.43994141 286.50941467 C246.41803633 290.75432369 248.40132316 294.99678033 250.38671875 299.23828125 C256.69543134 312.71841514 262.97285207 326.21317129 269.20956421 339.72677612 C269.98367849 341.40277034 270.75908038 343.07817047 271.53579712 344.75296021 C272.6186722 347.08884515 273.69667617 349.42691685 274.7734375 351.765625 C275.10082413 352.46934738 275.42821075 353.17306976 275.76551819 353.89811707 C278 358.77157566 278 358.77157566 278 361 C242.36 361 206.72 361 170 361 C161.49990574 342.86646558 153.03181297 324.75235634 144.77580261 306.51165771 C140.18970062 296.38170462 135.53778565 286.28233964 130.875 276.1875 C130.49330658 275.3610498 130.11161316 274.53459961 129.71835327 273.68310547 C124.30914698 261.97385942 118.87801522 250.27489929 113.43823242 238.57983398 C108.56141998 228.08228855 103.76573427 217.54837651 99 207 C95.44825331 207 94.46844798 207.77346517 91.5546875 209.71875 C90.65572754 210.31292725 89.75676758 210.90710449 88.83056641 211.51928711 C87.85522949 212.17292236 86.87989258 212.82655762 85.875 213.5 C83.77672415 214.88775121 81.67774183 216.27443473 79.578125 217.66015625 C78.49080078 218.37961426 77.40347656 219.09907227 76.28320312 219.84033203 C71.09415466 223.25365168 65.86120123 226.5971362 60.625 229.9375 C59.59358887 230.59645264 58.56217773 231.25540527 57.49951172 231.93432617 C55.39737116 233.27722456 53.294994 234.61975267 51.19238281 235.96191406 C36.09974054 245.59738192 21.02082672 255.25291971 6 265 C-4.90033608 272.07327585 -15.83115335 279.09735064 -26.77929688 286.09643555 C-33.36053646 290.30549546 -39.92873996 294.53357996 -46.48193359 298.78613281 C-52.67823743 302.80239289 -58.90189883 306.77543132 -65.125 310.75 C-74.29700837 316.60937393 -83.4280694 322.52773272 -92.53442383 328.48852539 C-97.23786765 331.56240409 -101.95232269 334.61633485 -106.6953125 337.62890625 C-108.09148804 338.51594238 -108.09148804 338.51594238 -109.51586914 339.42089844 C-111.36965003 340.59191184 -113.22818783 341.75543078 -115.09155273 342.91113281 C-119.40112031 345.60321283 -123.51875232 348.33704614 -127.46484375 351.54296875 C-140.02590469 361.47818269 -151.34917668 361.41850362 -167 360 C-164.71500667 352.46505661 -161.54167522 345.61537936 -158.0625 338.5625 C-156.88368122 336.14405102 -155.70622433 333.72500049 -154.53125 331.3046875 C-154.2337233 330.69270004 -153.93619659 330.08071259 -153.62965393 329.45018005 C-150.69449858 323.39912666 -147.86720627 317.30003064 -145.0625 311.1875 C-140.77960651 301.8609872 -136.46904027 292.5481489 -132.125 283.25 C-131.53099748 281.97803125 -130.93700337 280.70605859 -130.34301758 279.43408203 C-127.99861559 274.41455513 -125.65279147 269.39569449 -123.30566406 264.37744141 C-121.61972373 260.77279666 -119.93439876 257.1678653 -118.25 253.5625 C-117.96754425 252.95794983 -117.6850885 252.35339966 -117.39407349 251.73052979 C-111.85902313 239.87889066 -106.38249223 228.00048216 -100.9085083 216.12054443 C-95.68689249 204.79076948 -90.43032354 193.47831677 -85.125 182.1875 C-80.80467287 172.99226696 -76.50095407 163.79009095 -72.25 154.5625 C-71.78126465 153.54502686 -71.3125293 152.52755371 -70.82958984 151.47924805 C-70.09409912 149.88270386 -70.09409912 149.88270386 -69.34375 148.25390625 C-58.53327869 124.78996559 -47.66451547 101.35399146 -36.64428711 77.98779297 C-29.48137503 62.79737309 -22.42096951 47.55974718 -15.37138367 32.31643677 C-14.19759149 29.77915432 -13.02263432 27.24241228 -11.84750366 24.70574951 C-11.03037281 22.94061034 -10.21498177 21.17466609 -9.3996582 19.40869141 C-8.896521 18.32249512 -8.39338379 17.23629883 -7.875 16.1171875 C-7.22144531 14.70348877 -7.22144531 14.70348877 -6.5546875 13.26123047 C-4.43281303 8.81022558 -2.20516647 4.41033294 0 0 Z " fill="#FDFDFD" transform="translate(190,68)"/>
<path d="M0 0 C3.02551777 1.51275889 3.44466115 3.8115132 4.80859375 6.875 C5.0867543 7.49399673 5.36491486 8.11299347 5.65150452 8.75074768 C6.26175259 10.11013551 6.86915575 11.47080304 7.47412109 12.83255005 C9.14473847 16.59117455 10.83774008 20.33972588 12.52734375 24.08984375 C12.88649872 24.8884935 13.24565369 25.68714325 13.61569214 26.50999451 C17.84056946 35.89314689 22.16748699 45.22868141 26.5 54.5625 C26.90253998 55.43052246 27.30507996 56.29854492 27.71981812 57.19287109 C33.33070007 69.29101524 38.98292993 81.36923752 44.66098022 93.43597412 C49.79019688 104.34253395 54.79687708 115.30208912 59.76040649 126.28494263 C64.11973271 135.92997503 68.5605272 145.52719504 73.20825195 155.0378418 C76 160.79420341 76 160.79420341 76 163 C73.57214932 164.60915685 71.13832311 166.09615015 68.625 167.5625 C60.76859551 172.25155056 53.07945108 177.15704401 45.4375 182.1875 C43.2047493 183.65544197 40.97183416 185.12312367 38.73828125 186.58984375 C37.90135239 187.13947533 37.90135239 187.13947533 37.04751587 187.70021057 C31.10373894 191.59761698 25.11692087 195.42711283 19.125 199.25 C11.72955989 203.96921343 4.34845091 208.70791929 -3 213.5 C-10.34845308 218.29208213 -17.72969733 223.03056893 -25.125 227.75 C-34.88216583 233.97874424 -44.58199828 240.29051343 -54.26147461 246.63916016 C-61.70638195 251.51614629 -69.18472703 256.33757184 -76.6875 261.125 C-87.47437932 268.00925787 -98.20692047 274.97294897 -108.9140625 281.98046875 C-112.34813198 284.22782814 -115.78335482 286.47341793 -119.21875 288.71875 C-125.47997563 292.81126368 -131.74026501 296.90520656 -138 301 C-138.33 300.34 -138.66 299.68 -139 299 C-138.09587484 296.7149034 -137.12848297 294.55644069 -136.0546875 292.3515625 C-135.73377136 291.67651169 -135.41285522 291.00146088 -135.08221436 290.30595398 C-134.38586545 288.8435526 -133.68588046 287.3828784 -132.98272705 285.92373657 C-131.86349008 283.60111481 -130.7534679 281.27429732 -129.64599609 278.94604492 C-128.1409581 275.7825998 -126.63298784 272.62058019 -125.12304688 269.45947266 C-122.24760075 263.43024415 -119.43088612 257.37440956 -116.625 251.3125 C-115.85687988 249.65613525 -115.85687988 249.65613525 -115.07324219 247.96630859 C-111.94680209 241.21962974 -108.83143948 234.46787424 -105.71875 227.71484375 C-104.57509322 225.23392368 -103.43141256 222.75301462 -102.28768921 220.27212524 C-101.5123941 218.59034189 -100.73718662 216.90851814 -99.96206665 215.22665405 C-94.48699602 203.34921466 -88.95988135 191.4976117 -83.38964844 179.66455078 C-78.39636777 169.05051992 -73.52663956 158.38420639 -68.69644165 147.69512939 C-63.39625263 135.97515696 -57.93390808 124.33739604 -52.41653442 112.71832275 C-47.36074964 102.06617696 -42.41090247 91.37303672 -37.5625 80.625 C-31.37867103 66.91902439 -24.97986594 53.32204721 -18.52026367 39.74414062 C-12.24194559 26.54353086 -6.080623 13.29294782 0 0 Z " fill="#010A1C" transform="translate(203,91)"/>
<path d="M0 0 C2 1 2 1 3.125 4.0625 C3.41375 5.031875 3.7025 6.00125 4 7 C2.02 7.33 0.04 7.66 -2 8 C-1.125 2.25 -1.125 2.25 0 0 Z " fill="#171B23" transform="translate(203,91)"/>
</svg>
